<?xml version="1.0" standalone="no"?>
<!DOCTYPE svg PUBLIC "-//W3C//DTD SVG 20010904//EN"
 "http://www.w3.org/TR/2001/REC-SVG-20010904/DTD/svg10.dtd">
<svg version="1.0" xmlns="http://www.w3.org/2000/svg"
 width="1025.000000pt" height="426.000000pt" viewBox="0 0 1025.000000 426.000000"
 preserveAspectRatio="xMidYMid meet">

<g transform="translate(0.000000,426.000000) scale(0.100000,-0.100000)"
fill="#000000" stroke="none">
<path d="M1985 3902 c43 -40 467 -419 525 -469 26 -23 48 -32 81 -34 l45 -4
237 267 c130 147 237 269 237 272 0 3 -262 6 -582 6 l-583 -1 40 -37z" fill="#ec733b"/>
<path d="M1120 3488 c-404 -225 -745 -414 -757 -421 l-21 -12 21 -27 22 -27
1030 139 c567 77 1037 140 1046 140 11 0 18 11 21 33 3 17 7 37 9 43 2 6 -108
113 -246 237 -218 197 -254 226 -283 227 -43 0 -69 14 -90 50 l-17 28 -735
-410z" fill="#00c2e9"/>
<path d="M1438 3091 l-1048 -146 0 -33 c0 -18 -4 -41 -9 -50 -8 -15 113 -72
971 -457 540 -241 990 -438 1001 -438 11 1 24 6 29 11 4 4 44 267 88 583 44
316 82 588 85 604 4 26 0 33 -28 50 -17 11 -34 20 -37 21 -3 1 -476 -64 -1052
-145z" fill="#00c2e9"/>
<path d="M6052 2860 c-111 -16 -219 -95 -241 -177 -14 -49 -14 -127 0 -176 23
-86 116 -148 289 -192 167 -44 210 -73 210 -146 0 -40 -32 -83 -75 -99 -79
-30 -216 -1 -316 66 -28 19 -55 34 -59 34 -4 0 -28 -25 -54 -56 l-46 -56 38
-30 c55 -45 143 -86 219 -104 89 -21 230 -14 293 13 134 59 196 189 156 326
-29 101 -106 153 -293 203 -118 32 -180 59 -195 87 -6 11 -11 39 -11 61 0 31
6 45 27 63 74 64 204 52 368 -35 3 -2 26 23 49 54 40 55 41 58 23 71 -93 70
-259 110 -382 93z"/>
<path d="M9440 2851 c-56 -17 -108 -52 -158 -105 -30 -31 -52 -61 -50 -67 2
-6 29 -25 60 -42 l57 -31 33 35 c48 52 93 73 160 73 66 1 102 -20 131 -75 42
-81 5 -141 -244 -394 l-199 -202 0 -62 0 -61 320 0 320 0 0 75 0 75 -207 0
-208 0 106 108 c226 230 267 288 276 392 15 167 -114 291 -300 289 -40 0 -83
-4 -97 -8z"  />
<path d="M3160 2770 l0 -70 140 0 140 0 0 -390 0 -390 80 0 80 0 0 390 0 390
140 0 140 0 0 70 0 70 -360 0 -360 0 0 -70z" />
<path d="M3940 2833 c0 -5 70 -212 157 -460 l158 -453 80 0 80 0 94 308 c51
169 96 310 100 314 3 4 49 -133 102 -305 l96 -312 80 -3 80 -3 82 233 c45 128
117 334 160 458 l78 225 -80 3 c-44 2 -84 -1 -88 -5 -4 -4 -56 -145 -114 -313
-59 -168 -110 -310 -114 -317 -3 -6 -51 134 -106 313 l-100 324 -74 -2 -73 -3
-97 -310 c-54 -170 -99 -316 -102 -324 -3 -7 -56 134 -119 313 l-114 326 -83
0 c-46 0 -83 -3 -83 -7z" />
<path d="M5430 2380 l0 -460 80 0 80 0 0 460 0 460 -80 0 -80 0 0 -460z" />
<path d="M6580 2770 l0 -70 140 0 140 0 0 -390 0 -390 80 0 80 0 0 390 0 390
140 0 140 0 0 70 0 70 -360 0 -360 0 0 -70z"/>
<path d="M7470 2380 l0 -460 330 0 330 0 0 75 0 75 -250 0 -250 0 0 120 0 120
220 0 220 0 0 70 0 70 -220 0 -220 0 0 120 0 120 245 0 245 0 0 75 0 75 -325
0 -325 0 0 -460z"  />
<path d="M8330 2380 l0 -460 80 0 80 0 0 155 0 155 98 0 98 0 109 -155 110
-155 102 0 102 0 -120 166 c-66 92 -119 167 -117 168 2 1 22 10 45 20 92 40
144 131 147 255 2 135 -39 218 -133 265 -72 37 -147 46 -383 46 l-218 0 0
-460z m497 296 c51 -21 73 -63 73 -135 0 -63 -19 -112 -52 -133 -37 -24 -128
-38 -250 -38 l-108 0 0 166 0 166 148 -4 c108 -4 158 -10 189 -22z"/>
<path d="M327 2786 c-17 -13 29 -70 619 -768 350 -414 644 -761 653 -770 13
-13 26 -15 68 -10 51 7 58 13 351 272 l299 265 -14 29 c-14 27 -14 73 0 106 5
12 -196 106 -959 449 -531 238 -973 435 -982 437 -9 2 -25 -2 -35 -10z" fill="#00c2e9"/>
<path d="M2134 1542 c-120 -107 -254 -226 -297 -266 -77 -70 -78 -71 -67 -103
13 -36 -44 -24 513 -113 l389 -63 21 27 c12 15 38 32 59 39 l36 13 -152 328
-152 329 -65 1 -65 2 -220 -194z" fill="#00c2e9"/>
<path d="M1749 1074 c-8 -10 -10 -20 -3 -30 17 -25 679 -793 684 -793 3 -1 79
137 169 306 116 218 160 308 150 312 -17 5 -64 52 -70 68 -3 8 -163 37 -456
83 -248 38 -453 70 -456 70 -2 0 -10 -7 -18 -16z" fill="#00c2e9" />
</g>
</svg>
