<?xml version="1.0" standalone="no"?>
<!DOCTYPE svg PUBLIC "-//W3C//DTD SVG 20010904//EN"
 "http://www.w3.org/TR/2001/REC-SVG-20010904/DTD/svg10.dtd">
<svg version="1.0" xmlns="http://www.w3.org/2000/svg"
 width="582.000000pt" height="582.000000pt" viewBox="0 0 582.000000 582.000000"
 preserveAspectRatio="xMidYMid meet">

<g transform="translate(0.000000,582.000000) scale(0.100000,-0.100000)"
fill="#00c2e9" stroke="none">
<path d="M3200 5766 c0 -3 207 -190 461 -417 l460 -412 52 -2 c29 -1 59 -5 68
-9 11 -5 89 77 315 331 164 186 334 377 377 425 l79 88 -906 0 c-498 0 -906
-2 -906 -4z" fill="#ec733b"/>
<path d="M2830 5594 c-301 -169 -944 -528 -1565 -874 -318 -177 -557 -311
-563 -316 -2 -1 8 -23 23 -48 23 -39 30 -45 53 -40 24 4 838 114 2017 273 198
27 555 75 792 107 l433 59 0 33 c0 18 7 47 16 64 16 32 16 32 -17 62 -19 16
-195 174 -392 350 l-357 321 -63 6 c-74 6 -109 28 -134 81 -10 21 -22 37 -28
37 -5 0 -102 -52 -215 -115z"/>
<path d="M4010 4684 c-8 -2 -211 -31 -450 -64 -239 -33 -577 -80 -750 -105
-344 -48 -831 -116 -1400 -195 -536 -74 -572 -79 -607 -85 -31 -5 -33 -9 -33
-44 0 -21 -7 -57 -15 -80 l-15 -42 38 -16 c20 -8 172 -76 337 -150 165 -75
381 -171 480 -215 99 -44 223 -99 275 -123 52 -24 273 -123 490 -220 688 -308
1309 -586 1409 -632 29 -13 40 -13 72 -3 44 15 38 -4 69 225 12 83 29 211 40
285 11 74 28 200 39 280 48 349 123 885 139 1001 l18 126 -31 12 c-18 6 -40
20 -50 31 -18 20 -25 21 -55 14z"/>
<path d="M667 3985 l-28 -25 218 -257 c120 -142 353 -417 518 -612 165 -195
325 -384 355 -420 30 -37 190 -226 355 -420 165 -195 313 -370 330 -390 16
-20 81 -97 144 -171 63 -74 115 -136 116 -138 1 -1 19 5 40 14 24 10 52 14 74
10 35 -5 43 1 386 306 193 171 404 359 471 418 l121 107 -18 34 c-22 42 -25
133 -4 172 l15 28 -48 21 c-51 22 -1174 527 -2137 960 -731 329 -864 388 -873
388 -4 0 -20 -12 -35 -25z"/>
<path d="M3968 2344 c-33 -8 -59 -9 -92 -2 -52 11 -26 29 -247 -167 -68 -60
-245 -218 -394 -349 -148 -131 -287 -254 -307 -272 -36 -32 -37 -34 -23 -61 8
-15 15 -38 15 -50 0 -13 2 -23 5 -23 3 0 102 -16 220 -35 118 -19 311 -51 428
-70 467 -76 585 -95 652 -105 39 -6 80 -14 93 -17 16 -4 22 -1 22 11 0 31 58
83 107 96 27 7 49 14 51 16 2 1 -65 150 -148 331 -84 180 -191 411 -238 513
-47 102 -88 188 -91 191 -3 3 -27 0 -53 -7z"/>
<path d="M2881 1316 l-24 -26 20 -22 c11 -13 105 -122 209 -243 103 -121 232
-270 285 -332 53 -61 204 -236 334 -388 131 -152 241 -273 245 -268 4 4 65
116 135 248 153 287 166 311 283 531 51 93 92 173 92 176 0 3 -11 8 -23 12
-36 9 -75 44 -96 84 l-19 37 -278 43 c-154 24 -449 70 -656 103 -509 79 -478
77 -507 45z"/>
</g>
</svg>
