<svg xmlns="http://www.w3.org/2000/svg" data-name="Layer 1" viewBox="0 0 100 125" x="0px" y="0px"><title>Artboard 28</title><path d="M82.74,23.28a46.35,46.35,0,0,1,0,65.48,5.2,5.2,0,0,1-6.48.68l-11-7.17a5.11,5.11,0,0,1-.4-8.27A5.18,5.18,0,0,1,71,73.65l7.2,4.69a36,36,0,0,0-5-49.79,36.18,36.18,0,0,0-46.41,0,36,36,0,0,0-5,49.79L29,73.65A5.2,5.2,0,0,1,35.2,74a5.11,5.11,0,0,1-.45,8.23l-11,7.17a5.19,5.19,0,0,1-6.48-.68A46.3,46.3,0,0,1,82.74,23.28ZM73.35,60.62A3.27,3.27,0,1,0,77.19,58,3.27,3.27,0,0,0,73.35,60.62ZM28,46.91a3.27,3.27,0,1,0-3,2A3.27,3.27,0,0,0,28,46.91ZM22.81,58.09a3.27,3.27,0,0,0,.63,6.48,3.21,3.21,0,0,0,.64-.06,3.27,3.27,0,0,0,2.57-3.84h0A3.27,3.27,0,0,0,22.81,58.09Zm10.34-27.3h0a3.27,3.27,0,0,0,3.63,5.44h0a3.27,3.27,0,1,0-3.63-5.44ZM67.76,35.3a3.27,3.27,0,1,0-4.53.91A3.25,3.25,0,0,0,67.76,35.3ZM53,30.19a3.27,3.27,0,0,0-3-4.52h0a3.27,3.27,0,1,0,3,4.52Zm23.15,18L59.7,58.72A9.9,9.9,0,1,1,55,48.06L74,43.15a2.77,2.77,0,0,1,2.19,5Zm-22.93,7a3.5,3.5,0,1,0-1.81,4.61A3.51,3.51,0,0,0,53.24,55.19Z"/><text x="0" y="115" fill="#000000" font-size="5px" font-weight="bold" font-family="'Helvetica Neue', Helvetica, Arial-Unicode, Arial, Sans-serif">Created by Gregor Cresnar</text><text x="0" y="120" fill="#000000" font-size="5px" font-weight="bold" font-family="'Helvetica Neue', Helvetica, Arial-Unicode, Arial, Sans-serif">from the Noun Project</text></svg>