<?xml version="1.0" encoding="utf-8"?>
<!-- Svg Vector Icons : http://www.onlinewebfonts.com/icon -->
<!DOCTYPE svg PUBLIC "-//W3C//DTD SVG 1.1//EN" "http://www.w3.org/Graphics/SVG/1.1/DTD/svg11.dtd">
<svg version="1.1" xmlns="http://www.w3.org/2000/svg" xmlns:xlink="http://www.w3.org/1999/xlink" x="0px" y="0px" viewBox="0 0 1000 1000" enable-background="new 0 0 1000 1000" xml:space="preserve">
<metadata> Svg Vector Icons : http://www.onlinewebfonts.com/icon </metadata>
<g><path d="M945.5,40.7H54.5C29.9,40.7,10,60.9,10,85.9v828.2c0,25,19.9,45.2,44.5,45.2h890.9c24.6,0,44.5-20.3,44.5-45.2V85.9C990,60.9,970.1,40.7,945.5,40.7z M928.9,898.3H71.1V101.7h857.7V898.3z"/><path d="M125.7,693.9H874c7.7,0,13.9-6.3,13.9-14.1c0-70.9-19-160-51.8-217.4c-0.2-0.4,0.1-0.8-0.2-1.1c-0.2-0.4-0.7-0.4-0.9-0.8c-33.9-58.6-82.3-107.5-140.4-141.7c-0.3-0.3-0.3-0.8-0.7-1c-0.3-0.2-0.7,0-1.1-0.2c-56.9-33.2-122.7-52.3-192.9-52.3c-70.3,0-136,19.2-193,52.3c-0.4,0.2-0.8,0-1.1,0.2c-0.3,0.2-0.5,0.8-0.7,1c-58,34.2-106.4,83-140.2,141.5c-0.3,0.5-0.9,0.5-1.1,0.9c-0.3,0.3,0,0.9-0.2,1.2c-32.8,57.5-51.7,146.4-51.7,217.3C111.9,687.6,118,693.9,125.7,693.9z M202.3,495.2l63.6,34.3c2,1.1,4.3,1.6,6.6,1.6c4.5,0,8.8-2.1,11.2-6.1c3.6-5.8,1.4-13.2-4.8-16.6l-63.5-34.3c26.7-39.6,62.5-73.3,104.6-98.3l36.8,59.6c2.4,3.9,6.8,6.1,11.2,6.1c2.2,0,4.5-0.5,6.5-1.7c6.1-3.3,8.3-10.8,4.8-16.6l-36.9-59.9c43.1-21.3,93.1-33.8,144.7-35.6v68.8c0,6.7,3.1,12.1,10.2,12.1c7.1,0,11.5-5.4,11.5-12.1v-68.8c51.6,1.8,103,14.3,146,35.6L618,423.4c-3.6,5.8-1.4,13.2,4.8,16.6c2,1.1,4.3,1.7,6.5,1.7c4.5,0,8.8-2.2,11.2-6.1l36.8-59.7c42.2,25.1,78,58.7,104.7,98.3l-63.5,34.4c-6.2,3.3-8.3,10.8-4.8,16.6c2.4,4,6.8,6.1,11.3,6.1c2.2,0,4.5-0.6,6.5-1.6l63.6-34.4c22.8,40.4,36.8,109.3,38.8,157.7l-293,0.4c6-9.7,14.3-24.6,14.3-37c0-11.6-3.8-21.9-9.1-31.1l84.9-91.4c5.1-5.4,5.1-14.2,0-19.7c-5.1-5.6-13.3-5.5-18.3,0l-84.9,91.3c-8.7-5.6-16.9-14.2-27.7-14.2c-31.1,0-61.3,27.7-61.3,61.3c0,12.3,4.1,26.1,20.4,40.8l-295.4-0.4C165.8,604.4,179.6,535.6,202.3,495.2z"/></g>
</svg>