<svg xmlns="http://www.w3.org/2000/svg" data-name="Layer 1" viewBox="0 0 100 125"><path d="M82.74 23.28a46.35 46.35 0 0 1 0 65.48 5.2 5.2 0 0 1-6.48.68l-11-7.17a5.11 5.11 0 0 1-.4-8.27 5.18 5.18 0 0 1 6.14-.35l7.2 4.69a36 36 0 0 0-5-49.79 36.18 36.18 0 0 0-46.41 0 36 36 0 0 0-5 49.79L29 73.65a5.2 5.2 0 0 1 6.2.35 5.11 5.11 0 0 1-.45 8.23l-11 7.17a5.19 5.19 0 0 1-6.48-.68 46.3 46.3 0 0 1 65.47-65.44zm-9.39 37.34A3.27 3.27 0 1 0 77.19 58a3.27 3.27 0 0 0-3.84 2.62zM28 46.91a3.27 3.27 0 1 0-3 2 3.27 3.27 0 0 0 3-2zm-5.19 11.18a3.27 3.27 0 0 0 .63 6.48 3.21 3.21 0 0 0 .64-.06 3.27 3.27 0 0 0 2.57-3.84 3.27 3.27 0 0 0-3.84-2.58zm10.34-27.3a3.27 3.27 0 0 0 3.63 5.44 3.27 3.27 0 1 0-3.63-5.44zm34.61 4.51a3.27 3.27 0 1 0-4.53.91 3.25 3.25 0 0 0 4.53-.91zM53 30.19a3.27 3.27 0 0 0-3-4.52 3.27 3.27 0 1 0 3 4.52zm23.15 18L59.7 58.72A9.9 9.9 0 1 1 55 48.06l19-4.91a2.77 2.77 0 0 1 2.19 5zm-22.93 7a3.5 3.5 0 1 0-1.81 4.61 3.51 3.51 0 0 0 1.83-4.61z"/><text y="115" font-size="5" font-weight="bold" font-family="'Helvetica Neue', Helvetica, Arial-Unicode, Arial, Sans-serif">Created by Gregor Cresnar</text><text y="120" font-size="5" font-weight="bold" font-family="'Helvetica Neue', Helvetica, Arial-Unicode, Arial, Sans-serif">from the Noun Project</text></svg>