<svg xmlns="http://www.w3.org/2000/svg" viewBox="0 0 1000 1000"><path d="M945.5 40.7h-891C29.9 40.7 10 60.9 10 85.9v828.2c0 25 19.9 45.2 44.5 45.2h890.9c24.6 0 44.5-20.3 44.5-45.2V85.9c.1-25-19.8-45.2-44.4-45.2zm-16.6 857.6H71.1V101.7h857.7v796.6z"/><path d="M125.7 693.9H874c7.7 0 13.9-6.3 13.9-14.1 0-70.9-19-160-51.8-217.4-.2-.4.1-.8-.2-1.1-.2-.4-.7-.4-.9-.8-33.9-58.6-82.3-107.5-140.4-141.7-.3-.3-.3-.8-.7-1-.3-.2-.7 0-1.1-.2-56.9-33.2-122.7-52.3-192.9-52.3-70.3 0-136 19.2-193 52.3-.4.2-.8 0-1.1.2-.3.2-.5.8-.7 1-58 34.2-106.4 83-140.2 141.5-.3.5-.9.5-1.1.9-.3.3 0 .9-.2 1.2-32.8 57.5-51.7 146.4-51.7 217.3 0 7.9 6.1 14.2 13.8 14.2zm76.6-198.7l63.6 34.3c2 1.1 4.3 1.6 6.6 1.6 4.5 0 8.8-2.1 11.2-6.1 3.6-5.8 1.4-13.2-4.8-16.6l-63.5-34.3c26.7-39.6 62.5-73.3 104.6-98.3l36.8 59.6c2.4 3.9 6.8 6.1 11.2 6.1 2.2 0 4.5-.5 6.5-1.7 6.1-3.3 8.3-10.8 4.8-16.6l-36.9-59.9c43.1-21.3 93.1-33.8 144.7-35.6v68.8c0 6.7 3.1 12.1 10.2 12.1s11.5-5.4 11.5-12.1v-68.8c51.6 1.8 103 14.3 146 35.6L618 423.4c-3.6 5.8-1.4 13.2 4.8 16.6 2 1.1 4.3 1.7 6.5 1.7 4.5 0 8.8-2.2 11.2-6.1l36.8-59.7c42.2 25.1 78 58.7 104.7 98.3l-63.5 34.4c-6.2 3.3-8.3 10.8-4.8 16.6 2.4 4 6.8 6.1 11.3 6.1 2.2 0 4.5-.6 6.5-1.6l63.6-34.4c22.8 40.4 36.8 109.3 38.8 157.7l-293 .4c6-9.7 14.3-24.6 14.3-37 0-11.6-3.8-21.9-9.1-31.1l84.9-91.4c5.1-5.4 5.1-14.2 0-19.7-5.1-5.6-13.3-5.5-18.3 0l-84.9 91.3c-8.7-5.6-16.9-14.2-27.7-14.2-31.1 0-61.3 27.7-61.3 61.3 0 12.3 4.1 26.1 20.4 40.8l-295.4-.4c2-48.6 15.8-117.4 38.5-157.8z"/></svg>